<svg xmlns="http://www.w3.org/2000/svg" viewBox="0 0 400 400">
  <g fill="none" fill-rule="evenodd">
    <path fill="#000" d="M0 0h400v400H0z"/>
    <path fill="#FF2FA9" fill-rule="nonzero" d="M279.8 229.3c5.9 0 10.2 1.4 13.2 4.2a12.7 12.7 0 0 1 3 15.2c-.8 1.9-2 3.6-3.6 5a17.6 17.6 0 0 1-6 3.5c-2.5.8-5.3 1.3-8.4 1.3-2.1 0-4-.4-5.7-1.2-1.7-.8-3.1-2-4.2-3.3a16.2 16.2 0 0 1-2.5-15.2 13 13 0 0 1 2.8-4.7 15.2 15.2 0 0 1 11.4-4.8Zm57.9 0c5.5 0 9.6 1.2 12.1 3.7 2.6 2.4 3.9 5.1 3.9 8.3a15 15 0 0 1-1.4 6.1 17.6 17.6 0 0 1-10.8 9.6 25 25 0 0 1-9 1.5c-4 0-7-1.3-8.9-3.7a14 14 0 0 1-2.8-8.9 17.1 17.1 0 0 1 4.3-11.1 17 17 0 0 1 12.6-5.5ZM280 141.7a1406.2 1406.2 0 0 0-12.7 60.6 1386.3 1386.3 0 0 0-5.8 32.5l-1.6 11.9-3.6.7a1119.7 1119.7 0 0 0-21 5 1020.1 1020.1 0 0 0-6.5-57.6 279 279 0 0 1-2.8 15 891.4 891.4 0 0 0-3.1 18.5c-1.3 7.1-2.7 14.6-4.3 22.3l-22 5.2a9660.2 9660.2 0 0 0 11.4-59.3 1011.8 1011.8 0 0 0 8-51 2051.5 2051.5 0 0 0 24.4-1.6 887.7 887.7 0 0 1 4.8 30.2l.3 1.4a3841.8 3841.8 0 0 1 3 18.1 75 75 0 0 0 1.6 7.3 902.2 902.2 0 0 0 3-16 1563.8 1563.8 0 0 1 8.4-40.9l18.5-2.3Zm-98.2.4c4.5 0 8.3.9 11.2 2.7a20 20 0 0 1 7 7.3 33 33 0 0 1 3.5 10 60 60 0 0 1 1 11.2 99.2 99.2 0 0 1-19.8 59.7 78.5 78.5 0 0 1-12.1 12.3 56.4 56.4 0 0 1-12.9 7.7 32.8 32.8 0 0 1-12.3 2.6 19.9 19.9 0 0 1-16.2-7.5c-2-2.4-3.6-5.6-4.8-9.5a49.2 49.2 0 0 1-1.7-14 81 81 0 0 1 2.1-17.8c1.4-6.2 3.3-12.4 5.8-18.5A102.3 102.3 0 0 1 153 156c4.2-4.3 8.8-7.7 13.6-10.2 4.8-2.5 9.9-3.7 15-3.7Zm-64.8 2.5a16.6 16.6 0 0 1 12.7 5.8 24.2 24.2 0 0 1 5.3 15.4v1.8c0 .7 0 1.4-.2 2L115 175c-1.2-2.5-2.6-3.8-4.2-3.8s-3.3 1-5 2.8a38.6 38.6 0 0 0-5.3 7.2 102 102 0 0 0-9.2 21.1c-1.2 3.7-2.2 7.3-3 10.6-.7 3.4-1 6.2-1 8.3 0 3.2.4 5.5 1.2 6.8.9 1.3 2 2 3.4 2 1.1 0 2.4-.5 3.8-1.3 1.4-1 2.7-2 4-3.4 1.1-1.3 2.2-2.9 3.2-4.6 1-1.7 1.8-3.4 2.2-5.1l17.2 7a76.2 76.2 0 0 1-8.1 14.4c-3 4-6 7.5-9.4 10.2a35.7 35.7 0 0 1-9.9 6.1c-3.3 1.3-6.5 2-9.6 2a17.4 17.4 0 0 1-15.3-8.5 35.8 35.8 0 0 1-4.6-10.4 54 54 0 0 1-1.7-14.5 102 102 0 0 1 15-52.8 61.9 61.9 0 0 1 16.8-17.8 37 37 0 0 1 21.5-6.7Zm-46.2 1a5594.8 5594.8 0 0 1-11.3 56.9A1341 1341 0 0 0 53 237l-2.8 15-5.3.4a288.2 288.2 0 0 0-19.4 2.4 1600.1 1600.1 0 0 0 21.7-105.5l23.6-3.8Zm105.7 28.2c-3.2 0-6.2.8-9 2.4a27.5 27.5 0 0 0-7.2 6.4 51 51 0 0 0-5.7 9c-1.6 3.4-3 6.9-4.1 10.3a61.3 61.3 0 0 0-3.3 18.8 11 11 0 0 0 5 9c1 .7 2.1 1 3.3 1 4.5 0 8.6-1.6 12-4.7 3.6-3.1 6.5-7 8.9-11.5a66.5 66.5 0 0 0 7-32.4 16 16 0 0 0-1-4 7.7 7.7 0 0 0-2-3c-1-1-2.3-1.3-3.9-1.3Zm147.6-31.6a594.4 594.4 0 0 0-15 38.3l-13.3 38.7-8.7.3-8.8.6c3.1-12.4 6.2-24.7 9.1-37l9.3-37 6.6-.9a205 205 0 0 0 14.8-2l6-1Zm35.6 2.6c3.2 0 6.3.3 9.2 1 2.8.6 5.3 1.7 7.5 3.3a17.3 17.3 0 0 1 7.2 15 29.8 29.8 0 0 1-8.4 21.7 56 56 0 0 1-8 7.3c-3 2.2-5.8 4.5-8.5 6.8a53.6 53.6 0 0 0-7.4 7.7 25.3 25.3 0 0 0-4.7 10l-9 .9-8.8.9a41.7 41.7 0 0 1 8.1-25.8 61 61 0 0 1 7.5-8.7c2.7-2.6 5.1-5 7.5-7 2.3-2 4.2-4 5.7-5.6a7.4 7.4 0 0 0 2.3-4.9c0-.6-.4-1.4-1.2-2.5-.8-1-2.1-1.6-3.8-1.6-2 0-4.3.8-7 2.4a84.3 84.3 0 0 0-17.2 12.6l-8-18.6a60 60 0 0 1 17.4-11 52 52 0 0 1 19.6-4Z"/>
  </g>
</svg>
