<svg xmlns="http://www.w3.org/2000/svg" xmlns:xlink="http://www.w3.org/1999/xlink" viewBox="0 0 400 400">
  <defs>
    <filter id="b" width="108.2%" height="126%" x="-4.6%" y="-11.6%" filterUnits="objectBoundingBox">
      <feMorphology in="SourceAlpha" operator="dilate" radius="6" result="shadowSpreadOuter1"/>
      <feOffset dy="2" in="shadowSpreadOuter1" result="shadowOffsetOuter1"/>
      <feGaussianBlur in="shadowOffsetOuter1" result="shadowBlurOuter1" stdDeviation="2"/>
      <feComposite in="shadowBlurOuter1" in2="SourceAlpha" operator="out" result="shadowBlurOuter1"/>
      <feColorMatrix in="shadowBlurOuter1" result="shadowMatrixOuter1" values="0 0 0 0 0 0 0 0 0 0 0 0 0 0 0 0 0 0 0.5 0"/>
      <feMorphology in="SourceAlpha" operator="dilate" radius="6" result="shadowSpreadOuter2"/>
      <feOffset dx="3" dy="-2" in="shadowSpreadOuter2" result="shadowOffsetOuter2"/>
      <feGaussianBlur in="shadowOffsetOuter2" result="shadowBlurOuter2" stdDeviation=".5"/>
      <feComposite in="shadowBlurOuter2" in2="SourceAlpha" operator="out" result="shadowBlurOuter2"/>
      <feColorMatrix in="shadowBlurOuter2" result="shadowMatrixOuter2" values="0 0 0 0 1 0 0 0 0 0.184313725 0 0 0 0 0.662745098 0 0 0 0.5 0"/>
      <feMorphology in="SourceAlpha" operator="dilate" radius="6" result="shadowSpreadOuter3"/>
      <feOffset dx="-1" dy="2" in="shadowSpreadOuter3" result="shadowOffsetOuter3"/>
      <feGaussianBlur in="shadowOffsetOuter3" result="shadowBlurOuter3" stdDeviation=".5"/>
      <feComposite in="shadowBlurOuter3" in2="SourceAlpha" operator="out" result="shadowBlurOuter3"/>
      <feColorMatrix in="shadowBlurOuter3" result="shadowMatrixOuter3" values="0 0 0 0 0 0 0 0 0 0.956862745 0 0 0 0 1 0 0 0 0.5 0"/>
      <feMerge>
        <feMergeNode in="shadowMatrixOuter1"/>
        <feMergeNode in="shadowMatrixOuter2"/>
        <feMergeNode in="shadowMatrixOuter3"/>
      </feMerge>
    </filter>
    <path id="a" d="M279.8 229.3c5.9 0 10.2 1.4 13.2 4.2a12.7 12.7 0 0 1 3 15.2c-.8 1.9-2 3.6-3.6 5a17.6 17.6 0 0 1-6 3.5c-2.5.8-5.3 1.3-8.4 1.3-2.1 0-4-.4-5.7-1.2-1.7-.8-3.1-2-4.2-3.3a16.2 16.2 0 0 1-2.5-15.2 13 13 0 0 1 2.8-4.7 15.2 15.2 0 0 1 11.4-4.8Zm57.9 0c5.5 0 9.6 1.2 12.1 3.7 2.6 2.4 3.9 5.1 3.9 8.3a15 15 0 0 1-1.4 6.1 17.6 17.6 0 0 1-10.8 9.6 25 25 0 0 1-9 1.5c-4 0-7-1.3-8.9-3.7a14 14 0 0 1-2.8-8.9 17.1 17.1 0 0 1 4.3-11.1 17 17 0 0 1 12.6-5.5ZM280 141.7a1406.2 1406.2 0 0 0-12.7 60.6 1386.3 1386.3 0 0 0-5.8 32.5l-1.6 11.9-3.6.7a1119.7 1119.7 0 0 0-21 5 1020.1 1020.1 0 0 0-6.5-57.6 279 279 0 0 1-2.8 15 891.4 891.4 0 0 0-3.1 18.5c-1.3 7.1-2.7 14.6-4.3 22.3l-22 5.2a9660.2 9660.2 0 0 0 11.4-59.3 1011.8 1011.8 0 0 0 8-51 2051.5 2051.5 0 0 0 24.4-1.6 887.7 887.7 0 0 1 4.8 30.2l.3 1.4a3841.8 3841.8 0 0 1 3 18.1 75 75 0 0 0 1.6 7.3 902.2 902.2 0 0 0 3-16 1563.8 1563.8 0 0 1 8.4-40.9l18.5-2.3Zm-98.2.4c4.5 0 8.3.9 11.2 2.7a20 20 0 0 1 7 7.3 33 33 0 0 1 3.5 10 60 60 0 0 1 1 11.2 99.2 99.2 0 0 1-19.8 59.7 78.5 78.5 0 0 1-12.1 12.3 56.4 56.4 0 0 1-12.9 7.7 32.8 32.8 0 0 1-12.3 2.6 19.9 19.9 0 0 1-16.2-7.5c-2-2.4-3.6-5.6-4.8-9.5a49.2 49.2 0 0 1-1.7-14 81 81 0 0 1 2.1-17.8c1.4-6.2 3.3-12.4 5.8-18.5A102.3 102.3 0 0 1 153 156c4.2-4.3 8.8-7.7 13.6-10.2 4.8-2.5 9.9-3.7 15-3.7Zm-64.8 2.5a16.6 16.6 0 0 1 12.7 5.8 24.2 24.2 0 0 1 5.3 15.4v1.8c0 .7 0 1.4-.2 2L115 175c-1.2-2.5-2.6-3.8-4.2-3.8s-3.3 1-5 2.8a38.6 38.6 0 0 0-5.3 7.2 102 102 0 0 0-9.2 21.1c-1.2 3.7-2.2 7.3-3 10.6-.7 3.4-1 6.2-1 8.3 0 3.2.4 5.5 1.2 6.8.9 1.3 2 2 3.4 2 1.1 0 2.4-.5 3.8-1.3 1.4-1 2.7-2 4-3.4 1.1-1.3 2.2-2.9 3.2-4.6 1-1.7 1.8-3.4 2.2-5.1l17.2 7a76.2 76.2 0 0 1-8.1 14.4c-3 4-6 7.5-9.4 10.2a35.7 35.7 0 0 1-9.9 6.1c-3.3 1.3-6.5 2-9.6 2a17.4 17.4 0 0 1-15.3-8.5 35.8 35.8 0 0 1-4.6-10.4 54 54 0 0 1-1.7-14.5 102 102 0 0 1 15-52.8 61.9 61.9 0 0 1 16.8-17.8 37 37 0 0 1 21.5-6.7Zm-46.2 1a5594.8 5594.8 0 0 1-11.3 56.9A1341 1341 0 0 0 53 237l-2.8 15-5.3.4a288.2 288.2 0 0 0-19.4 2.4 1600.1 1600.1 0 0 0 21.7-105.5l23.6-3.8Zm105.7 28.2c-3.2 0-6.2.8-9 2.4a27.5 27.5 0 0 0-7.2 6.4 51 51 0 0 0-5.7 9c-1.6 3.4-3 6.9-4.1 10.3a61.3 61.3 0 0 0-3.3 18.8 11 11 0 0 0 5 9c1 .7 2.1 1 3.3 1 4.5 0 8.6-1.6 12-4.7 3.6-3.1 6.5-7 8.9-11.5a66.5 66.5 0 0 0 7-32.4 16 16 0 0 0-1-4 7.7 7.7 0 0 0-2-3c-1-1-2.3-1.3-3.9-1.3Zm147.6-31.6a594.4 594.4 0 0 0-15 38.3l-13.3 38.7-8.7.3-8.8.6c3.1-12.4 6.2-24.7 9.1-37l9.3-37 6.6-.9a205 205 0 0 0 14.8-2l6-1Zm35.6 2.6c3.2 0 6.3.3 9.2 1 2.8.6 5.3 1.7 7.5 3.3a17.3 17.3 0 0 1 7.2 15 29.8 29.8 0 0 1-8.4 21.7 56 56 0 0 1-8 7.3c-3 2.2-5.8 4.5-8.5 6.8a53.6 53.6 0 0 0-7.4 7.7 25.3 25.3 0 0 0-4.7 10l-9 .9-8.8.9a41.7 41.7 0 0 1 8.1-25.8 61 61 0 0 1 7.5-8.7c2.7-2.6 5.1-5 7.5-7 2.3-2 4.2-4 5.7-5.6a7.4 7.4 0 0 0 2.3-4.9c0-.6-.4-1.4-1.2-2.5-.8-1-2.1-1.6-3.8-1.6-2 0-4.3.8-7 2.4a84.3 84.3 0 0 0-17.2 12.6l-8-18.6a60 60 0 0 1 17.4-11 52 52 0 0 1 19.6-4Z"/>
  </defs>
  <g fill="none" fill-rule="evenodd">
    <path fill="#000" d="M0 0h400v400H0z"/>
    <text fill="#FF2FA9" fill-rule="nonzero" font-family="Bangers-Regular, Bangers" font-size="151" letter-spacing="1.2">
            <tspan x="26.4" y="255">ICON!?</tspan>
        </text>
    <g fill-rule="nonzero">
      <use xlink:href="#a" fill="#000" filter="url(#b)"/>
      <path fill="#FF2FA9" fill-rule="evenodd" stroke="#FFF" stroke-width="6" d="M279.8 226.3c6.8 0 11.8 1.8 15.2 5a15.6 15.6 0 0 1 3.8 18.6 18 18 0 0 1-4.4 6 23 23 0 0 1-7 4.1c-2.8 1-5.9 1.5-9.4 1.5a15.7 15.7 0 0 1-12.3-5.6 19.2 19.2 0 0 1-3-18.1 16 16 0 0 1 3.5-5.8 18.2 18.2 0 0 1 13.6-5.7Zm57.9 0c6.5 0 11.2 1.6 14.2 4.5a14 14 0 0 1 4.8 10.5c0 2.5-.6 5-1.6 7.4a22.3 22.3 0 0 1-4.8 6.5 25.4 25.4 0 0 1-17.7 6.3c-5.2 0-9-1.8-11.3-4.9-2.4-3-3.5-6.5-3.5-10.7a20.1 20.1 0 0 1 5-13.1 20 20 0 0 1 14.9-6.5Zm-53.9-88a1426.2 1426.2 0 0 0-13.5 64.6 1383.3 1383.3 0 0 0-5.8 32.4 487.5 487.5 0 0 0-2 15l-2.6-.6-3 .6a1116.7 1116.7 0 0 0-20.8 5l-3.5 1.2a1154.7 1154.7 0 0 0-4.2-41.5v-.5l-.1.3-.5 3-.3 1.7a2038.9 2038.9 0 0 1-6.3 33.6l-28.4 6.6A9688.9 9688.9 0 0 0 205 196a1008.8 1008.8 0 0 0 8.3-53.2 2199.1 2199.1 0 0 0 29.5-2.1 1013.2 1013.2 0 0 1 5.3 33l.2 1.4 1.6 9.4v.3l.1-.4 1.5-7.5.4-2 2-9.3a6402 6402 0 0 0 5-24.2Zm-102 .8c5.2 0 9.4 1 12.8 3.2 3.4 2.1 6.1 5 8 8.3a36 36 0 0 1 3.9 11 63 63 0 0 1 1 11.7 102.2 102.2 0 0 1-20.4 61.6c-4 5-8.3 9.2-12.7 12.7a52 52 0 0 1-13.5 8.1 35 35 0 0 1-13.5 2.9 22.9 22.9 0 0 1-18.5-8.6c-2.3-2.7-4-6.2-5.3-10.5-1.3-4.1-1.9-9-1.9-14.9 0-5.8.7-12 2.2-18.4a119 119 0 0 1 5.9-19 105.3 105.3 0 0 1 21.2-33.3c4.4-4.5 9.2-8 14.3-10.7a35.2 35.2 0 0 1 16.5-4.1Zm-5.3 37.7c-2.7 0-5.1.6-7.4 2a24.5 24.5 0 0 0-6.5 5.7c-2 2.5-3.8 5.3-5.3 8.4a86.4 86.4 0 0 0-6.4 19.7c-.4 3.1-.7 5.8-.7 8.1 0 .8.2 1.7.5 2.5a5 5 0 0 0 1.1 2.3 7 7 0 0 0 1.9 1.7 4 4 0 0 0 1.8.5c3.8 0 7.2-1.3 10.1-4 3.3-2.8 6-6.4 8-10.5a63.5 63.5 0 0 0 6.8-30.8 13 13 0 0 0-.7-3.2c-.3-.8-.8-1.4-1.3-2-.5-.3-1.2-.4-1.9-.4ZM117 141.6a19.6 19.6 0 0 1 15 6.8 27.6 27.6 0 0 1 6 17.4v1.8a19 19 0 0 1-.6 4.5l-24 6.4c-.9-1.9-1.5-3.4-2.3-4.1-1.3-.2-2.2.6-3.2 1.7a37.6 37.6 0 0 0-4.8 6.6 99 99 0 0 0-9 20.5 208 208 0 0 0-2.8 10.4c-.7 3.1-1 5.6-1 7.6 0 2.4 0 4.1.7 5.1.3.4.5.6 1 .6.6 0 1.3-.3 2.1-.8 1.2-.7 2.3-1.6 3.3-2.8l3-4.1a14.8 14.8 0 0 0 2.1-7.9l23.7 9.6c-2.8 7-6 12.9-9.6 17.8a61.3 61.3 0 0 1-9.8 10.8c-3.6 3-7.2 5.2-10.8 6.6a29.3 29.3 0 0 1-10.7 2.2 20.4 20.4 0 0 1-17.8-9.8c-2-3-3.7-6.8-5-11.3a57 57 0 0 1-1.8-15.3A105 105 0 0 1 76 167.5c5-7.7 10.9-14 17.7-18.6a40 40 0 0 1 23.2-7.3Zm-42.5.3a5629.3 5629.3 0 0 1-12 61.1 1338 1338 0 0 0-6.5 34.7 1454.4 1454.4 0 0 0-3.3 17.4 34.8 34.8 0 0 0-7.5.2 285.2 285.2 0 0 0-15.6 2l-2.8.2-6 3 1.8-6.5c1.2-4.2 2.4-9 3.6-14.2a1597.1 1597.1 0 0 0 18.4-93.1Zm254.7-4a603.6 603.6 0 0 0-17.2 43.6c-4.5 12.8-9 25.7-13.3 38.7l-.7 2a124 124 0 0 0-10.7.3l-13 .9c3.6-13.7 7-27.4 10.2-41a2211.5 2211.5 0 0 1 9.8-39 151.5 151.5 0 0 1 8.6-1.2l7.4-1a236.7 236.7 0 0 1 13.2-2c1.6-.2 3.4-.7 5.7-1.2Zm30.5 3.9c3.5 0 6.7.3 9.8 1 3.3.8 6.2 2 8.7 3.8a20.3 20.3 0 0 1 8.4 17.5 32.8 32.8 0 0 1-9.2 23.8 58.3 58.3 0 0 1-8.4 7.6c-3 2.2-5.7 4.4-8.4 6.7a50.6 50.6 0 0 0-7 7.2c-2.3 3-3.8 6.7-4.5 11l-11.1 1-12.2 1.3a47 47 0 0 1 8.7-30.8 64 64 0 0 1 7.8-9.2c2.7-2.6 5.2-5 7.6-7 2.2-2 4-3.8 5.5-5.4.9-1 1.5-1.9 1.5-2.9 0-.2-.4-.4-.6-.7-.3-.3-.9-.4-1.4-.4-1.5 0-3.4.8-5.6 2a118.8 118.8 0 0 0-19.7 15L319.1 159a63 63 0 0 1 19.8-13 53.9 53.9 0 0 1 20.8-4.2Z"/>
    </g>
  </g>
</svg>
