<svg xmlns="http://www.w3.org/2000/svg" viewBox="0 0 400 400">
  <g fill="none" fill-rule="evenodd">
    <path fill="#000" d="M0 0h400v400H0z"/>
    <path fill="#FF2FA9" fill-rule="nonzero" d="m130.9 143.9-4.4 18.5h-23.7l-4.7 27c3.1-.2 6.1-.2 9-.2h7c2.4 0 4.3 0 5.6-.2l-1.1 8.3c-.5 2.7-1 5.5-1.3 8.2a287.8 287.8 0 0 1-13-.3l-8.8-.3-6.9 44.5a300 300 0 0 0-10.1 2 292 292 0 0 0-18 3.8c1.2-4.4 2.4-9.2 3.6-14.6a903.2 903.2 0 0 0 9.8-52.6 4299 4299 0 0 0 6.4-41.6l50.6-2.5Zm49.8-.8a622.2 622.2 0 0 0-2 27.6 4044.8 4044.8 0 0 0-3.4 80 1304.2 1304.2 0 0 0-25.5 4 2650.5 2650.5 0 0 1 2-18.3l.7-7.2h-13.2l-6 21.7a415.5 415.5 0 0 1-16.3 2l-9.5 1.2a28648.7 28648.7 0 0 1 22.3-74.4 6781.5 6781.5 0 0 0 9.2-32c6.9-.4 13.9-1 21-1.7 7-.7 14-1.7 20.7-2.9Zm-22.6 20h-2.3l-3.5 13-9.3 38a54.7 54.7 0 0 0 5.5-.2 501.3 501.3 0 0 0 5.3-.4l.3-3.1a228 228 0 0 0 1-11.1 1519.8 1519.8 0 0 1 2-23.1l1-13.2Zm88.2 66.2c5.8 0 10.2 1.4 13.1 4.2a12.7 12.7 0 0 1 3.1 15.2c-.8 1.9-2 3.6-3.7 5a17.6 17.6 0 0 1-6 3.5c-2.4.8-5.2 1.3-8.3 1.3-2.1 0-4-.4-5.8-1.2-1.7-.8-3-2-4.1-3.3a16.2 16.2 0 0 1-2.5-15.2 13 13 0 0 1 2.8-4.7 15.2 15.2 0 0 1 11.4-4.8Zm57.8 0c5.6 0 9.6 1.2 12.2 3.7 2.6 2.4 3.8 5.1 3.8 8.3a15 15 0 0 1-1.3 6.1c-1 2-2.3 3.9-4 5.6a22.6 22.6 0 0 1-15.8 5.5c-4 0-7-1.3-8.9-3.7a14 14 0 0 1-2.9-8.9 17.1 17.1 0 0 1 4.3-11.1 17 17 0 0 1 12.6-5.5Zm-89-85.1a2412.5 2412.5 0 0 1-4.8 47 890.3 890.3 0 0 0-2.4 25.6l-1 9.5h2.7l16.9-80.3a242.6 242.6 0 0 0 16.2-1 61 61 0 0 0 7.7-.5 298 298 0 0 0-4.4 14.6 11186.2 11186.2 0 0 0-9 34.1l-4.3 17.3a3414 3414 0 0 0-9.7 40l-39 5.9a3693 3693 0 0 0 6.2-77.9 790.2 790.2 0 0 0 1.3-33.3 214.7 214.7 0 0 0 21.1-.8l2.4-.2Zm75.4-2a594.4 594.4 0 0 0-14.8 38.3l-13.4 38.7c-3 0-5.8.1-8.8.3l-8.7.6 9.1-37c3-12.3 6-24.6 9.3-37l6.6-.9a205 205 0 0 0 14.8-2l6-1Zm35.7 2.6c3.2 0 6.3.3 9.1 1 2.9.6 5.4 1.7 7.6 3.3a17.3 17.3 0 0 1 7.1 15 29.8 29.8 0 0 1-8.3 21.7 56 56 0 0 1-8 7.3c-3 2.2-5.9 4.5-8.6 6.8a53.6 53.6 0 0 0-7.4 7.7 25.3 25.3 0 0 0-4.7 10l-8.9.9-8.9.9a41.7 41.7 0 0 1 8.2-25.8 61 61 0 0 1 7.5-8.7c2.6-2.6 5.1-5 7.4-7 2.3-2 4.3-4 5.8-5.6a7.2 7.2 0 0 0 2.2-4.9c0-.6-.4-1.4-1.2-2.5-.8-1-2-1.6-3.7-1.6-2 0-4.3.8-7 2.4a84.3 84.3 0 0 0-17.2 12.6l-8-18.6a60 60 0 0 1 17.4-11 52 52 0 0 1 19.6-4Z"/>
  </g>
</svg>
